<svg xmlns="http://www.w3.org/2000/svg" width="800" height="640" viewBox="0 0 800 640">
  <rect width="100%" height="100%" fill="#f8fafc" />
  <g stroke="#d1d5db" stroke-width="1"> 
    <line x1="0.0" y1="0" x2="0.0" y2="640.0" /><line x1="80.0" y1="0" x2="80.0" y2="640.0" /><line x1="160.0" y1="0" x2="160.0" y2="640.0" /><line x1="240.0" y1="0" x2="240.0" y2="640.0" /><line x1="320.0" y1="0" x2="320.0" y2="640.0" /><line x1="400.0" y1="0" x2="400.0" y2="640.0" /><line x1="480.0" y1="0" x2="480.0" y2="640.0" /><line x1="560.0" y1="0" x2="560.0" y2="640.0" /><line x1="640.0" y1="0" x2="640.0" y2="640.0" /><line x1="720.0" y1="0" x2="720.0" y2="640.0" /><line x1="800.0" y1="0" x2="800.0" y2="640.0" />
    <line x1="0" y1="0.0" x2="800.0" y2="0.0" /><line x1="0" y1="80.0" x2="800.0" y2="80.0" /><line x1="0" y1="160.0" x2="800.0" y2="160.0" /><line x1="0" y1="240.0" x2="800.0" y2="240.0" /><line x1="0" y1="320.0" x2="800.0" y2="320.0" /><line x1="0" y1="400.0" x2="800.0" y2="400.0" /><line x1="0" y1="480.0" x2="800.0" y2="480.0" /><line x1="0" y1="560.0" x2="800.0" y2="560.0" /><line x1="0" y1="640.0" x2="800.0" y2="640.0" />
  </g>
  <g>
    <rect x="160.0" y="536.0" width="240.0" height="24.0" fill="#2f2f2f" opacity="0.7" /><rect x="480.0" y="200.0" width="32.0" height="200.0" fill="#2f2f2f" opacity="0.7" /><rect x="80.0" y="168.0" width="224.0" height="32.0" fill="#2f2f2f" opacity="0.7" />
  </g>
  <circle cx="280.0" cy="480.0" r="20" fill="#56B4E9" opacity="0.5" />
  <circle cx="280.0" cy="480.0" r="10" fill="#0072B2" />
  <line x1="280.0" y1="480.0" x2="319.6" y2="440.4" stroke="#D55E00" stroke-width="6" stroke-linecap="round" />
  <polygon points="319.6,440.4 307.6,448.4 307.6,432.4" fill="#D55E00" />
  <text x="16" y="28" font-size="20" font-family="Arial" fill="#111827">Unitree Go2 - Initial Map Placement</text>
</svg>
